<svg xmlns="http://www.w3.org/2000/svg" viewBox="0 0 600 400" width="600" height="400">
  <defs>
    <linearGradient id="bg" x1="0%" y1="0%" x2="100%" y2="100%">
      <stop offset="0%" style="stop-color:#1a2030"/>
      <stop offset="100%" style="stop-color:#0f1420"/>
    </linearGradient>
    <linearGradient id="glow" x1="0%" y1="0%" x2="0%" y2="100%">
      <stop offset="0%" style="stop-color:#00b4d8;stop-opacity:0.15"/>
      <stop offset="100%" style="stop-color:#00b4d8;stop-opacity:0"/>
    </linearGradient>
  </defs>
  <rect width="600" height="400" fill="url(#bg)"/>
  <rect width="600" height="200" fill="url(#glow)"/>
  <rect x="10" y="10" width="580" height="380" rx="12" fill="none" stroke="#2a3548" stroke-width="1.5" stroke-dasharray="8 4"/>
  <g transform="translate(300, 150)">
    <circle cx="0" cy="0" r="40" fill="none" stroke="#00b4d8" stroke-width="2" opacity="0.4"/>
    <circle cx="0" cy="0" r="32" fill="#0a0e17" stroke="#00b4d8" stroke-width="1.5"/>
    <g transform="translate(0, -2)">
      <rect x="-16" y="-8" width="32" height="20" rx="3" fill="none" stroke="#00b4d8" stroke-width="2"/>
      <rect x="-12" y="-4" width="24" height="12" rx="1" fill="#00b4d8" opacity="0.2"/>
      <line x1="-8" y1="12" x2="-8" y2="16" stroke="#00b4d8" stroke-width="2" stroke-linecap="round"/>
      <line x1="8" y1="12" x2="8" y2="16" stroke="#00b4d8" stroke-width="2" stroke-linecap="round"/>
      <text x="0" y="3" text-anchor="middle" fill="#00b4d8" font-family="sans-serif" font-size="10" font-weight="bold">LiFePO4</text>
    </g>
  </g>
  <text x="300" y="230" text-anchor="middle" fill="#7a8ba0" font-family="sans-serif" font-size="16" font-weight="600">Product Image</text>
  <text x="300" y="255" text-anchor="middle" fill="#4a5868" font-family="sans-serif" font-size="13">Upload via Admin Panel</text>
  <g transform="translate(300, 295)">
    <rect x="-50" y="-14" width="100" height="28" rx="14" fill="#00b4d8" opacity="0.1"/>
    <text x="0" y="4" text-anchor="middle" fill="#00b4d8" font-family="sans-serif" font-size="11" font-weight="600">InnoWit</text>
  </g>
</svg>
